<?xml version="1.0" standalone="no"?>
<!DOCTYPE svg PUBLIC "-//W3C//DTD SVG 20010904//EN"
 "http://www.w3.org/TR/2001/REC-SVG-20010904/DTD/svg10.dtd">
<svg version="1.0" xmlns="http://www.w3.org/2000/svg"
 width="902.000000pt" height="193.000000pt" viewBox="0 0 902.000000 193.000000"
 preserveAspectRatio="xMidYMid meet">

<g transform="translate(0.000000,193.000000) scale(0.100000,-0.100000)"
fill="#6366f1" stroke="none">
<path d="M670 1774 c-42 -18 -86 -58 -108 -99 -14 -25 -18 -69 -20 -265 -3
-175 -7 -239 -17 -250 -25 -29 -26 -56 -4 -83 25 -32 61 -35 89 -7 27 27 25
52 -5 88 -19 23 -25 41 -25 81 0 61 -2 60 155 64 l110 2 3 34 c2 19 1 44 -2
57 -6 24 -9 24 -124 24 -78 0 -122 4 -130 12 -14 14 -16 144 -3 202 11 46 62
102 108 117 72 24 159 -16 193 -88 18 -39 20 -63 20 -260 0 -209 -1 -218 -22
-240 -27 -29 -28 -81 -3 -99 64 -47 143 38 85 91 -16 14 -20 31 -20 77 0 52 2
58 20 58 51 0 141 -70 173 -135 19 -39 34 -108 47 -220 16 -132 37 -303 55
-445 8 -69 16 -138 18 -155 l2 -30 -400 0 c-315 0 -408 3 -439 14 -58 20 -120
83 -146 147 -25 62 -25 108 5 334 9 63 20 156 26 205 15 130 64 221 141 259
20 10 23 20 26 74 2 39 -1 62 -8 62 -25 0 -104 -46 -148 -85 -77 -70 -110
-145 -132 -311 -11 -76 -27 -188 -35 -249 -21 -149 -20 -253 3 -313 43 -111
134 -202 242 -238 51 -18 92 -19 530 -19 l475 0 -1 30 c0 17 -8 84 -18 150 -9
66 -23 174 -31 240 -68 570 -73 591 -161 686 -55 57 -108 91 -174 110 -69 19
-70 20 -70 130 0 102 -8 131 -48 186 -48 65 -154 91 -232 57z"/>
<path d="M7473 1266 c-105 -34 -198 -118 -227 -203 -25 -72 -21 -159 10 -221
43 -87 109 -127 275 -167 41 -10 93 -26 116 -36 95 -40 52 -125 -62 -123 -44
1 -120 31 -177 71 l-38 26 -86 -79 c-47 -43 -88 -84 -91 -92 -14 -34 134 -141
247 -178 76 -26 235 -26 310 0 62 21 120 59 167 108 104 108 101 316 -5 410
-48 41 -103 65 -236 99 -120 32 -146 48 -146 90 0 64 92 74 193 22 l49 -24 86
79 c48 44 88 86 89 93 3 17 -71 68 -152 105 -52 24 -75 28 -170 31 -74 2 -124
-2 -152 -11z"/>
<path d="M1880 1256 c-72 -20 -117 -45 -159 -91 -81 -88 -87 -210 -13 -295 42
-50 71 -65 242 -125 74 -27 151 -58 171 -71 56 -35 84 -87 84 -159 0 -76 -28
-124 -93 -163 -43 -24 -56 -27 -142 -27 -83 1 -101 4 -145 27 -27 15 -74 51
-104 81 -52 54 -55 55 -77 40 -13 -8 -24 -21 -24 -28 0 -16 81 -99 128 -130
61 -41 147 -65 229 -65 60 0 85 5 136 29 100 48 151 106 173 197 17 73 1 137
-49 198 -49 59 -78 75 -227 129 -69 25 -141 52 -160 60 -112 48 -143 186 -61
269 46 45 132 73 200 64 63 -9 143 -50 181 -92 30 -35 32 -35 51 -18 27 25 24
42 -17 81 -48 45 -117 79 -189 92 -71 13 -78 13 -135 -3z"/>
<path d="M3765 1259 c-220 -19 -393 -180 -441 -412 -24 -113 -9 -205 53 -329
172 -344 665 -363 881 -34 48 74 72 165 72 278 0 115 -20 180 -85 278 -108
163 -270 237 -480 219z m168 -74 c199 -52 317 -213 317 -431 0 -131 -47 -241
-138 -327 -89 -82 -187 -113 -331 -105 -206 12 -362 174 -378 391 -8 109 9
194 52 273 93 167 289 248 478 199z"/>
<path d="M5348 1163 c-5 -310 -6 -758 -2 -831 l6 -82 356 2 357 3 3 113 c1 61
1 113 0 114 -2 1 -100 4 -218 7 l-215 6 0 85 0 85 135 3 c92 2 137 6 142 15
11 17 10 159 -2 177 -7 12 -38 16 -145 18 l-136 4 3 76 3 77 204 3 c133 1 209
6 218 14 10 8 13 36 11 112 l-3 101 -357 3 -358 2 -2 -107z"/>
<path d="M6499 1243 c-5 -15 -16 -46 -24 -68 -42 -118 -121 -333 -156 -425
-23 -58 -47 -121 -54 -140 -7 -19 -20 -53 -28 -75 -32 -82 -98 -260 -100 -270
-1 -6 48 -10 133 -10 l135 0 26 51 c14 29 29 61 32 73 5 20 10 21 177 21 167
0 172 -1 177 -21 3 -12 18 -44 32 -73 l26 -51 134 -3 133 -3 -5 23 c-9 38
-126 355 -259 703 -10 28 -32 88 -49 135 -16 46 -37 100 -47 120 l-17 35 -128
3 -127 3 -11 -28z m164 -445 c36 -79 68 -171 65 -186 -3 -14 -18 -18 -86 -20
-62 -2 -84 0 -88 11 -8 22 69 227 86 227 4 0 14 -15 23 -32z"/>
<path d="M8105 1228 c-3 -24 -5 -249 -3 -501 3 -394 5 -459 18 -467 9 -6 154
-9 360 -7 l345 2 3 106 c2 80 -1 109 -11 117 -9 8 -85 13 -218 14 l-204 3 0
85 0 85 135 5 135 5 9 42 c5 23 5 67 2 97 l-7 56 -102 2 c-56 1 -118 2 -137 2
l-35 1 0 80 0 80 215 5 215 5 0 110 0 110 -357 3 -357 2 -6 -42z"/>
<path d="M2485 1248 c-3 -7 -4 -233 -3 -503 l3 -490 35 0 35 0 5 235 5 235
250 0 250 0 5 -235 c3 -129 7 -236 8 -238 1 -2 17 -2 35 0 l32 3 0 500 0 500
-35 0 -35 0 -5 -225 -5 -225 -250 0 -250 0 -3 228 -2 227 -36 0 c-19 0 -37 -6
-39 -12z"/>
<path d="M4517 1246 c-8 -19 -8 -942 -1 -971 5 -20 12 -25 39 -25 21 0 35 6
39 16 4 10 6 93 5 187 0 93 3 173 8 177 4 4 78 10 163 12 138 4 160 7 200 27
72 38 127 90 161 154 29 54 31 64 27 135 -8 145 -85 247 -217 286 -74 22 -416
24 -424 2z m411 -70 c100 -36 152 -111 152 -220 0 -80 -24 -140 -74 -184 -56
-49 -121 -63 -272 -60 l-129 3 -3 225 c-1 123 0 230 2 237 8 19 270 18 324 -1z"/>
</g>
</svg>
